<svg version="1.1" id="Layer_1" xmlns="http://www.w3.org/2000/svg" xmlns:xlink="http://www.w3.org/1999/xlink" x="0px" y="0px"
	 width="100%" viewBox="0 0 512 512" enable-background="new 0 0 512 512" xml:space="preserve">
<path fill="#000000" opacity="1.000000" stroke="none" 
	d="
M1.000000,218.468658 
	C3.332828,210.407959 5.329339,202.698837 9.459444,195.778732 
	C22.010090,174.749786 44.882214,167.434937 67.662376,175.425644 
	C92.978104,184.305771 106.356598,204.090454 113.155861,228.792252 
	C118.496956,248.196503 118.364426,267.659729 108.864563,285.979462 
	C101.995705,299.225464 91.465103,308.731812 76.430931,311.712830 
	C58.304455,315.306946 42.475342,310.072205 28.736702,297.887604 
	C14.948359,285.658905 6.909053,270.201172 2.492763,252.542282 
	C1.838042,249.924316 1.975305,247.275391 1.140888,244.359131 
	C1.000000,235.645767 1.000000,227.291534 1.000000,218.468658 
M73.854988,278.509155 
	C77.588387,275.785248 80.068443,272.220642 81.710167,267.869629 
	C87.283539,253.098770 84.489197,239.063400 77.659325,225.648621 
	C74.217545,218.888535 69.695663,212.763504 63.150383,208.253952 
	C52.351845,200.813995 41.524151,203.258392 35.966156,215.047546 
	C30.562693,226.508911 31.148977,238.305969 35.125340,249.954910 
	C38.888409,260.979004 44.576488,270.825256 54.837292,277.237976 
	C60.656303,280.874664 66.711372,282.334686 73.854988,278.509155 
z"/>
<path fill="#000000" opacity="1.000000" stroke="none" 
	d="
M513.000000,244.531342 
	C510.254822,260.179108 505.243591,274.405090 495.603790,286.717804 
	C483.715698,301.902222 468.867645,312.269775 449.096252,312.970520 
	C437.999268,313.363770 427.360657,310.257355 418.695129,302.679443 
	C400.362335,286.647461 395.796265,265.953949 398.312775,242.700989 
	C399.956024,227.516846 404.625000,213.555374 413.448242,201.101227 
	C423.239044,187.281403 435.595367,176.907593 452.710571,173.492996 
	C478.385529,168.370636 500.141571,180.851837 509.208405,205.899994 
	C510.668976,209.934906 511.623993,214.152817 512.906372,218.643066 
	C513.000000,227.354233 513.000000,235.708466 513.000000,244.531342 
M429.352905,254.321823 
	C429.535065,259.693481 430.845123,264.838196 433.016602,269.694336 
	C437.923004,280.666809 447.414642,283.591522 458.021912,277.909607 
	C467.851105,272.644501 473.336945,263.813263 477.369904,254.110733 
	C482.688934,241.314240 484.120270,228.077713 478.068298,215.008636 
	C472.677704,203.367798 460.547424,200.662659 450.378540,208.678589 
	C435.935944,220.063385 430.003967,235.507462 429.352905,254.321823 
z"/>
<path fill="#000000" opacity="1.000000" stroke="none" 
	d="
M215.075272,469.380005 
	C194.558548,472.730560 174.669083,477.155609 154.135117,477.530609 
	C139.409180,477.799561 125.091179,477.150482 111.640923,470.367126 
	C97.012695,462.989655 88.616844,450.714874 85.840973,435.105774 
	C81.725578,411.964386 85.556946,389.321075 92.333008,367.060364 
	C100.669617,339.673035 114.139954,314.945923 132.199814,292.929169 
	C149.611435,271.702667 169.961349,253.626633 194.938232,241.509811 
	C210.247131,234.083145 226.258316,229.222946 243.393127,227.453537 
	C275.809937,224.105988 305.065979,232.460281 332.510071,249.097549 
	C347.855438,258.400299 361.326569,269.965942 373.286682,283.189911 
	C385.989685,297.235291 396.972626,312.527252 405.832367,329.425690 
	C415.540070,347.941406 422.968658,367.186768 426.754395,387.693207 
	C430.129669,405.976288 432.301514,424.495728 426.006561,442.614044 
	C419.692657,460.786896 406.093964,471.220154 387.744751,475.233948 
	C370.090363,479.095795 352.272186,478.081268 334.451172,475.541168 
	C314.622498,472.714874 295.004364,468.704681 275.240356,465.565521 
	C260.393555,463.207367 245.467438,463.950134 230.667236,466.726685 
	C225.627853,467.672089 220.563843,468.486115 215.075272,469.380005 
M359.684143,316.776917 
	C343.534729,296.284515 324.582153,279.113098 300.572510,268.310150 
	C277.785278,258.057190 254.199570,255.492584 229.868851,262.376526 
	C199.562912,270.951050 176.341110,289.760620 156.872849,313.583374 
	C144.329514,328.932312 134.453094,346.028687 127.240150,364.590698 
	C120.589180,381.706421 116.009003,399.266327 115.934036,417.740448 
	C115.911217,423.362915 116.422333,429.150879 118.994194,434.240936 
	C123.469170,443.097504 132.095978,444.966034 140.843979,445.568726 
	C161.860565,447.016693 182.330261,442.721802 202.871613,439.142731 
	C217.368164,436.616882 231.822754,433.668457 246.543594,432.676880 
	C267.950836,431.234924 288.767731,435.641113 309.654083,439.293243 
	C330.304565,442.904083 350.912140,447.470764 372.054626,445.568665 
	C389.168488,444.028961 395.909271,438.588257 397.473999,424.924133 
	C399.386871,408.219604 396.078003,391.940247 390.962616,376.056091 
	C384.088043,354.709320 373.481598,335.293365 359.684143,316.776917 
z"/>
<path fill="#000000" opacity="1.000000" stroke="none" 
	d="
M160.953400,39.670238 
	C187.538940,30.237152 212.883026,40.452309 229.196930,63.262375 
	C242.614594,82.022942 247.877106,103.194626 248.397980,125.962608 
	C248.930740,149.250626 244.620911,171.265106 231.912811,191.050278 
	C218.876419,211.346558 200.995636,223.742508 175.875961,222.283005 
	C161.886658,221.470215 150.122803,214.943497 140.217133,205.313736 
	C126.301689,191.785858 118.582169,174.778793 114.920494,156.070099 
	C109.296074,127.333099 111.387077,99.288147 125.504959,73.038918 
	C133.486084,58.199692 144.645798,46.382664 160.953400,39.670238 
M146.935593,106.271729 
	C144.569244,115.798744 143.570892,125.422310 144.300064,135.258972 
	C145.700348,154.149200 150.798569,171.300400 165.592117,184.434067 
	C173.092377,191.092773 180.698013,192.341141 189.857681,188.005325 
	C195.658188,185.259598 200.029785,180.807541 203.421555,175.773056 
	C221.943115,148.281021 221.445236,106.055588 201.548431,80.163361 
	C190.872314,66.270226 176.908051,64.247643 164.826935,74.352974 
	C155.200333,82.405212 150.361191,93.569679 146.935593,106.271729 
z"/>
<path fill="#000000" opacity="1.000000" stroke="none" 
	d="
M299.478394,210.626831 
	C279.094543,193.602493 269.716278,171.341446 266.593842,145.982315 
	C263.523438,121.046288 265.966919,96.740738 277.896088,74.345413 
	C287.544434,56.231945 301.017151,41.588436 322.326538,37.361732 
	C341.050323,33.647884 357.739471,38.408173 371.817261,51.589947 
	C388.970825,67.651772 397.337372,87.876495 400.460632,110.796059 
	C403.663055,134.296692 401.462524,157.144379 391.841431,178.816132 
	C384.041016,196.386719 372.397644,210.934631 353.881470,218.438141 
	C337.040771,225.262680 320.774872,223.470261 305.207520,214.349045 
	C303.347107,213.259003 301.572327,212.022690 299.478394,210.626831 
M369.644592,138.278351 
	C369.647614,133.494583 369.776764,128.706955 369.630554,123.927757 
	C369.146637,108.107864 364.721405,93.418953 355.176453,80.787613 
	C345.454620,67.922264 332.247833,63.460541 318.968719,73.488068 
	C312.000397,78.750122 307.728821,86.107216 304.366058,93.911263 
	C296.572662,111.997704 295.075104,130.811935 299.482880,149.919037 
	C302.628448,163.554626 308.223907,176.124390 319.567780,185.131042 
	C325.048706,189.482697 331.153961,192.047577 338.536957,189.850586 
	C347.193634,187.274582 353.061615,181.240143 357.720917,174.173233 
	C364.671265,163.631256 368.083221,151.670166 369.644592,138.278351 
z"/>
</svg>